<?xml version="1.0" standalone="no"?>
<!DOCTYPE svg PUBLIC "-//W3C//DTD SVG 1.1//EN" "http://www.w3.org/Graphics/SVG/1.1/DTD/svg11.dtd" >
<svg xmlns="http://www.w3.org/2000/svg">
<metadata></metadata>
<defs>
<font id="ifly_monospaceregular" horiz-adv-x="1677" >
<font-face units-per-em="2048" ascent="1655" descent="-393" />
<missing-glyph horiz-adv-x="681" />
<glyph unicode="&#xfb01;" horiz-adv-x="2068" d="M78 0v1042q0 129 90.5 220.5t218.5 91.5h1065v-297h-915q-44 0 -75.5 -26.5t-31.5 -69.5v-150h1022v-295h-1022v-516h-352zM1640 0v807h353v-807h-353zM1640 995v359h353v-359h-353z" />
<glyph unicode="&#xfb02;" horiz-adv-x="3088" d="M78 0v1042q0 129 90.5 220.5t218.5 91.5h1065v-297h-915q-44 0 -75.5 -26.5t-31.5 -69.5v-150h1022v-295h-1022v-516h-352zM1638 313v1045h353v-961q0 -43 31 -69.5t75 -26.5h916v-297h-1063q-129 0 -220.5 90.5t-91.5 218.5z" />
<glyph horiz-adv-x="2048" />
<glyph horiz-adv-x="2048" />
<glyph unicode="&#xd;" horiz-adv-x="2048" />
<glyph unicode=" "  horiz-adv-x="681" />
<glyph unicode="&#x09;" horiz-adv-x="681" />
<glyph unicode="&#xa0;" horiz-adv-x="681" />
<glyph unicode="!" horiz-adv-x="563" d="M78 1354h409l-65 -932h-279zM104 0v344h353v-344h-353z" />
<glyph unicode="&#x22;" horiz-adv-x="1075" d="M78 844l162 510h342l-160 -510h-344zM496 844l159 510h344l-159 -510h-344z" />
<glyph unicode="#" horiz-adv-x="1513" d="M78 270v353h252l20 106h-272v352h342l53 273h358l-53 -273h117l53 273h361l-54 -273h183v-352h-252l-21 -106h273v-353h-342l-54 -270h-358l53 270h-116l-54 -270h-360l53 270h-182zM688 623h119l20 106h-118z" />
<glyph unicode="$" horiz-adv-x="1458" d="M78 819v47q0 137 98 235.5t234 98.5h184v154h295v-154h371v-297h-781q-25 0 -42 -13.5t-17 -37.5v-33q0 -24 17 -37.5t42 -13.5h555q145 0 246.5 -101.5t101.5 -246.5v-47q0 -137 -97.5 -234.5t-233.5 -97.5h-162v-234h-295v234h-465v297h852q25 0 42 13.5t17 37.5v31 q0 25 -17 38t-42 13h-555q-142 0 -245 102.5t-103 245.5z" />
<glyph unicode="%" horiz-adv-x="2742" d="M78 776v266q0 129 90.5 220.5t218.5 91.5h404q129 0 220 -91.5t91 -220.5v-266q0 -128 -91 -218.5t-220 -90.5h-404q-127 0 -218 90.5t-91 218.5zM430 860q0 -43 31.5 -70.5t75.5 -27.5h106q43 0 75 27.5t32 70.5v101q0 43 -32 69.5t-75 26.5h-106q-44 0 -75.5 -26.5 t-31.5 -69.5v-101zM813 0l721 1354h399l-721 -1354h-399zM1645 309v266q0 129 90.5 220.5t218.5 91.5h403q128 0 218.5 -91.5t90.5 -220.5v-266q0 -127 -91 -218t-218 -91h-403q-128 0 -218.5 91t-90.5 218zM1997 393q0 -43 31 -70.5t75 -27.5h105q44 0 75 27.5t31 70.5v101 q0 43 -31 69.5t-75 26.5h-105q-44 0 -75 -26.5t-31 -69.5v-101z" />
<glyph unicode="&#x26;" horiz-adv-x="1773" d="M78 373v57q0 126 72.5 228t189.5 143q-18 58 -18 121v57q0 154 108.5 264.5t261.5 110.5h492v-297h-404q-44 0 -75 -26.5t-31 -69.5v-39q0 -43 31 -70t75 -27h404v144h297v-144h217v-297h-217v-528h-1030q-154 0 -263.5 109.5t-109.5 263.5zM430 393q0 -43 31.5 -70.5 t75.5 -27.5h647v233h-647q-44 0 -75.5 -27t-31.5 -71v-37z" />
<glyph unicode="'" horiz-adv-x="686" d="M78 844l162 510h370l-161 -510h-371z" />
<glyph unicode="(" horiz-adv-x="712" d="M78 10v1032q0 129 90.5 220.5t218.5 91.5h250v-297h-100q-44 0 -75.5 -26.5t-31.5 -69.5v-867q0 -43 31.5 -70.5t75.5 -27.5h100v-295h-250q-127 0 -218 90.5t-91 218.5z" />
<glyph unicode=")" horiz-adv-x="712" d="M78 -4h100q43 0 74 27.5t31 70.5v867q0 43 -31 69.5t-74 26.5h-100v297h248q128 0 219.5 -91.5t91.5 -220.5v-1032q0 -127 -91.5 -218t-219.5 -91h-248v295z" />
<glyph unicode="*" horiz-adv-x="847" d="M49 807q0 29 18.5 58t51.5 46q8 4 67.5 19.5t112.5 36.5q-43 16 -103 31.5t-77 25.5q-32 15 -51 43.5t-19 58.5q0 38 28.5 62t65.5 24q43 0 72 -20q28 -17 71.5 -63t65.5 -64q-5 43 -23 100.5t-18 83.5q0 50 29 85.5t70 35.5q40 0 68 -35.5t28 -85.5q0 -36 -17 -88 q-19 -63 -24 -98q36 28 78.5 71.5t68.5 59.5t64 16q43 0 67.5 -21.5t24.5 -64.5q0 -66 -66 -100q-18 -12 -43.5 -19.5t-65.5 -17t-69 -18.5q32 -12 73.5 -26t62.5 -21t46 -18.5t36 -23t18.5 -29.5t7.5 -42q0 -38 -27.5 -63t-64.5 -25q-41 0 -73 20.5t-73.5 64.5t-64.5 62 q5 -34 24 -98q17 -50 17 -86q0 -49 -28 -84t-68 -35q-41 0 -70 34.5t-29 84.5q0 29 17.5 88t23.5 96q-27 -21 -69.5 -65t-72 -64t-63.5 -20q-40 0 -69 24.5t-29 63.5z" />
<glyph unicode="+" horiz-adv-x="1064" d="M78 528v297h307v308h297v-308h307v-297h-307v-307h-297v307h-307z" />
<glyph unicode="," horiz-adv-x="716" d="M0 -242l231 586h410l-315 -586h-326z" />
<glyph unicode="-" horiz-adv-x="731" d="M78 528v297h577v-297h-577z" />
<glyph unicode="." horiz-adv-x="505" d="M78 0v344h352v-344h-352z" />
<glyph unicode="/" horiz-adv-x="1433" d="M78 -299l880 1653h400l-881 -1653h-399z" />
<glyph unicode="0" horiz-adv-x="1748" d="M80 309v733q0 129 90.5 220.5t218.5 91.5h967q129 0 220 -91.5t91 -220.5v-733q0 -128 -91 -218.5t-220 -90.5h-967q-127 0 -218 91t-91 218zM432 393q0 -43 31.5 -70.5t75.5 -27.5h669q44 0 75.5 27.5t31.5 70.5v568q0 43 -31.5 69.5t-75.5 26.5h-669q-44 0 -75.5 -26.5 t-31.5 -69.5v-568z" />
<glyph unicode="1" horiz-adv-x="1761" d="M455 1057v297h850v-1354h-353v1057h-497z" />
<glyph unicode="2" horiz-adv-x="1761" d="M82 0v403q0 161 116 277.5t277 116.5h733q43 0 74 26.5t31 69.5v68q0 43 -31 69.5t-74 26.5h-1081v297h1167q152 0 262.5 -108t110.5 -259v-94q0 -161 -116 -277t-277 -116h-733q-44 0 -75.5 -27t-31.5 -70v-108h1233v-295h-1585z" />
<glyph unicode="3" horiz-adv-x="1761" d="M82 0v295h1126q43 0 75 27.5t32 70.5v37q0 44 -31.5 71t-75.5 27h-1126v297h1126q43 0 75 27t32 70v39q0 43 -31.5 69.5t-75.5 26.5h-1126v297h1212q154 0 263.5 -110.5t109.5 -264.5v-57q0 -136 -86 -246q86 -110 86 -246v-57q0 -154 -109.5 -263.5t-263.5 -109.5h-1212 z" />
<glyph unicode="4" horiz-adv-x="1761" d="M82 309v336l881 709h499v-748h205v-297h-205v-309h-352v309h-1028zM504 606h606v498z" />
<glyph unicode="5" horiz-adv-x="1761" d="M82 0v295h1126q43 0 74 27.5t31 70.5v66q0 43 -31 69.5t-74 26.5h-1126v799h1515v-297h-1163v-205h840q162 0 277.5 -115.5t115.5 -277.5v-86q0 -154 -109.5 -263.5t-263.5 -109.5h-1212z" />
<glyph unicode="6" horiz-adv-x="1761" d="M82 309v733q0 129 90.5 220.5t218.5 91.5h1211v-297h-1061q-44 0 -75.5 -26.5t-31.5 -69.5v-136h840q161 0 277 -116t116 -279v-57q0 -154 -109.5 -263.5t-263.5 -109.5h-903q-127 0 -218 91t-91 218zM434 393q0 -43 31.5 -70.5t75.5 -27.5h667q43 0 74 27.5t31 70.5v37 q0 44 -31 71t-74 27h-774v-135z" />
<glyph unicode="7" horiz-adv-x="1761" d="M82 1057v297h1585v-314l-917 -1040h-437l932 1057h-1163z" />
<glyph unicode="8" horiz-adv-x="1761" d="M82 373v57q0 87 37.5 167t103.5 136q-47 83 -47 189v57q0 158 111 266.5t262 108.5h651q155 0 265 -110.5t110 -264.5v-57q0 -102 -49 -189q68 -56 105.5 -135.5t37.5 -167.5v-57q0 -154 -110.5 -263.5t-264.5 -109.5h-837q-155 0 -265 109.5t-110 263.5zM434 393 q0 -43 31.5 -70.5t75.5 -27.5h669q43 0 75 27.5t32 70.5v37q0 39 -29 68q-8 8 -27.5 15.5t-34.5 10.5l-16 4h-669q-4 -2 -11.5 -4.5t-26 -12.5t-32.5 -20.5t-25.5 -27t-11.5 -33.5v-37zM528 922q0 -43 31.5 -70t75.5 -27h481q44 0 75.5 27t31.5 70v39q0 43 -31.5 69.5 t-75.5 26.5h-481q-44 0 -75.5 -26.5t-31.5 -69.5v-39z" />
<glyph unicode="9" horiz-adv-x="1761" d="M82 922v57q0 154 109.5 264.5t263.5 110.5h901q128 0 219.5 -91.5t91.5 -220.5v-733q0 -127 -91.5 -218t-219.5 -91h-1211v295h1063q43 0 74 27.5t31 70.5v135h-838q-163 0 -278 115.5t-115 278.5zM434 922q0 -43 31.5 -70t75.5 -27h772v136q0 43 -31 69.5t-74 26.5h-667 q-44 0 -75.5 -26.5t-31.5 -69.5v-39z" />
<glyph unicode=":" horiz-adv-x="1761" d="M664 0v420h432v-420h-432zM664 776v422h432v-422h-432z" />
<glyph unicode=";" horiz-adv-x="716" d="M0 -242l231 586h410l-315 -586h-326zM258 475v346h354v-346h-354z" />
<glyph unicode="&#x3c;" horiz-adv-x="1243" d="M78 541v270l1089 477v-323l-661 -289l661 -289v-321z" />
<glyph unicode="=" horiz-adv-x="1325" d="M78 322v296h1171v-296h-1171zM78 733v297h1171v-297h-1171z" />
<glyph unicode="&#x3e;" horiz-adv-x="1243" d="M78 66v321l661 289l-661 289v323l1089 -477v-270z" />
<glyph unicode="?" horiz-adv-x="1585" d="M78 1057v297h1120q128 0 219.5 -91.5t91.5 -220.5v-120q0 -163 -116 -278.5t-279 -115.5h-203q-44 0 -75 -27t-31 -71v-8h-352v8q0 163 116 279t277 116h205q43 0 73.5 27t30.5 70v39q0 43 -30.5 69.5t-73.5 26.5h-973zM453 0v344h352v-344h-352z" />
<glyph unicode="@" horiz-adv-x="1775" d="M78 309v733q0 129 90.5 220.5t218.5 91.5h1002q128 0 219.5 -91.5t91.5 -220.5v-491q0 -83 -60 -143t-145 -60h-799q-84 0 -143 59.5t-59 143.5v250q0 85 59 145t143 60h398q83 0 142.5 -60t59.5 -145v-156h50v316q0 43 -31 69.5t-74 26.5h-704q-44 0 -75.5 -26.5 t-31.5 -69.5v-568q0 -43 31.5 -70.5t75.5 -27.5h1163v-295h-1313q-127 0 -218 91t-91 218zM803 643h196v68h-196v-68z" />
<glyph unicode="A" d="M78 0v1044q0 128 91 219t218 91h1215v-1354h-355v528h-817v-528h-352zM430 825h817v232h-710q-44 0 -75.5 -26.5t-31.5 -69.5v-136z" />
<glyph unicode="B" horiz-adv-x="1687" d="M78 0v1354h1163q153 0 262 -110.5t109 -264.5v-57q0 -136 -86 -246q86 -107 86 -244v-57q0 -154 -109 -264.5t-262 -110.5h-1163zM430 297h723q44 0 75.5 26.5t31.5 69.5v39q0 43 -31.5 69.5t-75.5 26.5h-723v-231zM430 825h723q44 0 75.5 27t31.5 70v39q0 43 -31.5 69.5 t-75.5 26.5h-723v-232z" />
<glyph unicode="C" horiz-adv-x="1527" d="M78 309v735q0 128 91 219t218 91h1065v-297h-915q-44 0 -75.5 -26.5t-31.5 -69.5v-568q0 -43 31.5 -69.5t75.5 -26.5h915v-297h-1065q-127 0 -218 91t-91 218z" />
<glyph unicode="D" d="M78 0v1354h1212q128 0 220 -91.5t92 -218.5v-735q0 -127 -92 -218t-220 -91h-1212zM430 297h713q43 0 73.5 26.5t30.5 69.5v568q0 43 -30.5 69.5t-73.5 26.5h-713v-760z" />
<glyph unicode="E" horiz-adv-x="1527" d="M78 309v735q0 128 91 219t218 91h1065v-297h-915q-44 0 -75.5 -26.5t-31.5 -69.5v-136h1022v-297h-1022v-135q0 -43 31.5 -69.5t75.5 -26.5h915v-297h-1065q-127 0 -218 91t-91 218z" />
<glyph unicode="F" horiz-adv-x="1527" d="M78 0v1044q0 128 91 219t218 91h1065v-297h-915q-44 0 -75.5 -26.5t-31.5 -69.5v-148h1022v-297h-1022v-516h-352z" />
<glyph unicode="G" horiz-adv-x="1536" d="M78 309v735q0 128 91 219t218 91h1065v-297h-915q-44 0 -75.5 -26.5t-31.5 -69.5v-568q0 -43 31.5 -69.5t75.5 -26.5h571v231h-279v297h631v-825h-1073q-127 0 -218 91t-91 218z" />
<glyph unicode="H" horiz-adv-x="1619" d="M78 0v1354h352v-529h762v529h352v-1354h-352v528h-762v-528h-352z" />
<glyph unicode="I" horiz-adv-x="573" d="M111 0v1354h352v-1354h-352z" />
<glyph unicode="J" horiz-adv-x="1341" d="M78 0v297h729q44 0 75 26.5t31 69.5v961h353v-1045q0 -127 -91 -218t-219 -91h-878z" />
<glyph unicode="K" horiz-adv-x="1595" d="M78 2v1352h352v-510h102l498 510h463l-498 -510h213q128 0 220 -91.5t92 -220.5v-532h-355v451q0 43 -30.5 69.5t-73.5 26.5h-631v-545h-352z" />
<glyph unicode="L" horiz-adv-x="1527" d="M78 309v1045h352v-961q0 -43 31.5 -69.5t75.5 -26.5h915v-297h-1065q-127 0 -218 91t-91 218z" />
<glyph unicode="M" horiz-adv-x="2324" d="M78 0v1354h1859q129 0 220.5 -91t91.5 -219v-1044h-355v961q0 43 -30.5 69.5t-73.5 26.5h-451v-1057h-352v1057h-557v-1057h-352z" />
<glyph unicode="N" d="M78 0v1354h1212q128 0 220 -91.5t92 -218.5v-1044h-355v961q0 43 -30.5 69.5t-73.5 26.5h-713v-1057h-352z" />
<glyph unicode="O" horiz-adv-x="1775" d="M78 309v735q0 128 91 219t218 91h1002q128 0 219.5 -91.5t91.5 -218.5v-735q0 -127 -91.5 -218t-219.5 -91h-1002q-127 0 -218 91t-91 218zM430 393q0 -43 31.5 -69.5t75.5 -26.5h704q43 0 74 26.5t31 69.5v568q0 43 -31 69.5t-74 26.5h-704q-44 0 -75.5 -26.5 t-31.5 -69.5v-568z" />
<glyph unicode="P" d="M78 0v1354h1212q128 0 220 -91.5t92 -218.5v-360q0 -129 -92 -220t-220 -91h-860v-373h-352zM430 670h713q43 0 73.5 26.5t30.5 69.5v195q0 43 -30.5 69.5t-73.5 26.5h-713v-387z" />
<glyph unicode="Q" horiz-adv-x="1775" d="M78 309v735q0 128 91 219t218 91h1002q128 0 219.5 -91.5t91.5 -218.5v-735q0 -127 -91.5 -218t-219.5 -91h-392q1 -43 32 -68.5t75 -25.5h418v-297h-568q-128 0 -218.5 90.5t-90.5 218.5v82h-258q-127 0 -218 91t-91 218zM430 393q0 -43 31.5 -69.5t75.5 -26.5h704 q43 0 74 26.5t31 69.5v568q0 43 -31 69.5t-74 26.5h-704q-44 0 -75.5 -26.5t-31.5 -69.5v-568z" />
<glyph unicode="R" d="M78 0v1354h1212q128 0 220 -91.5t92 -218.5v-305q0 -111 -74 -198q69 -101 69 -248v-293h-352v313q0 45 -31 81t-73 36h-711v-430h-352zM430 725h713q44 0 74 27.5t30 70.5v138q0 43 -30.5 69.5t-73.5 26.5h-713v-332z" />
<glyph unicode="S" horiz-adv-x="1705" d="M78 0v297h1091q44 0 75.5 26.5t31.5 69.5v39q0 43 -31.5 69.5t-75.5 26.5h-682q-161 0 -277 116.5t-116 277.5v57q0 154 109.5 264.5t263.5 110.5h1092v-297h-1006q-43 0 -73.5 -26.5t-30.5 -69.5v-39q0 -43 30.5 -70t73.5 -27h682q163 0 279 -116t116 -277v-57 q0 -155 -109.5 -265t-263.5 -110h-1179z" />
<glyph unicode="T" horiz-adv-x="1808" d="M78 1057v297h1655v-297h-652v-1057h-352v1057h-651z" />
<glyph unicode="U" d="M78 309v1045h352v-961q0 -43 31.5 -69.5t75.5 -26.5h710v1057h355v-1354h-1215q-127 0 -218 91t-91 218z" />
<glyph unicode="V" d="M78 0v1354h352v-1057h494q133 0 228 87.5t95 219.5v750h355v-772q0 -118 -46.5 -225.5t-124.5 -185.5t-186 -124.5t-227 -46.5h-940z" />
<glyph unicode="W" horiz-adv-x="2324" d="M78 309v1045h352v-961q0 -43 31.5 -69.5t75.5 -26.5h450v1057h352v-1057h555v1057h355v-1354h-1862q-127 0 -218 91t-91 218z" />
<glyph unicode="X" horiz-adv-x="1976" d="M78 0l692 711l-627 643h490l356 -365l357 365h489l-627 -643l693 -711h-490l-422 432l-422 -432h-489z" />
<glyph unicode="Y" horiz-adv-x="1529" d="M78 0v297h917q43 0 74 26.5t31 69.5v119h-713q-127 0 -218 91t-91 218v533h352v-449q0 -43 31.5 -70.5t75.5 -27.5h563v547h354v-1045q0 -127 -91.5 -218t-219.5 -91h-1065z" />
<glyph unicode="Z" horiz-adv-x="1888" d="M78 154q0 71 51 110l1030 793h-1003v297h1507q63 0 103 -47t40 -109q0 -68 -51 -108l-1030 -795h1087v-295h-1591q-62 0 -102.5 47t-40.5 107z" />
<glyph unicode="[" horiz-adv-x="612" d="M78 -301v1653h459v-297h-107v-1059h107v-297h-459z" />
<glyph unicode="\" horiz-adv-x="1433" d="M78 1352h399l881 -1653h-400z" />
<glyph unicode="]" horiz-adv-x="612" d="M78 -4h106v1059h-106v297h459v-1653h-459v297z" />
<glyph unicode="^" horiz-adv-x="2441" d="M49 1016q216 -74 483 -192t443 -200t215 -89q105 115 260 256t343.5 292t407 293t412.5 232q-175 -125 -317 -253.5t-236 -242t-158 -222.5t-92 -197.5t-28 -164.5q0 -107 57.5 -169t157.5 -62q164 0 370 160q-86 -170 -215.5 -296.5t-228.5 -162.5q-55 -18 -168 -18 q-124 0 -262 19t-209 48q-24 10 -56.5 40t-69 71.5t-91.5 100t-118 123t-154.5 142t-195.5 155.5t-247 166.5t-303 170.5zM834 907q0 95 71.5 162.5t171.5 67.5q101 0 173.5 -67.5t72.5 -162.5t-72.5 -163t-173.5 -68q-100 0 -171.5 68t-71.5 163z" />
<glyph unicode="_" horiz-adv-x="1024" d="M0 0h1024v-295h-1024v295z" />
<glyph unicode="`" horiz-adv-x="1005" d="M49 1878h359l548 -432h-360z" />
<glyph unicode="a" horiz-adv-x="1619" d="M78 309v223q0 128 91 220t218 92h805v117q0 43 -31.5 69.5t-75.5 26.5h-886v297h1036q128 0 218.5 -91.5t90.5 -220.5v-1042h-1157q-127 0 -218 91t-91 218zM430 393q0 -43 31.5 -70.5t75.5 -27.5h655v252h-655q-44 0 -75.5 -26.5t-31.5 -69.5v-58z" />
<glyph unicode="b" horiz-adv-x="1687" d="M78 0v1354h1163q153 0 262 -110.5t109 -264.5v-57q0 -136 -86 -246q86 -107 86 -244v-57q0 -154 -109 -264.5t-262 -110.5h-1163zM430 297h723q44 0 75.5 26.5t31.5 69.5v39q0 43 -31.5 69.5t-75.5 26.5h-723v-231zM430 825h723q44 0 75.5 27t31.5 70v39q0 43 -31.5 69.5 t-75.5 26.5h-723v-232z" />
<glyph unicode="c" horiz-adv-x="1527" d="M78 309v735q0 128 91 219t218 91h1065v-297h-915q-44 0 -75.5 -26.5t-31.5 -69.5v-568q0 -43 31.5 -69.5t75.5 -26.5h915v-297h-1065q-127 0 -218 91t-91 218z" />
<glyph unicode="d" d="M78 0v1354h1212q128 0 220 -91.5t92 -218.5v-735q0 -127 -92 -218t-220 -91h-1212zM430 297h713q43 0 73.5 26.5t30.5 69.5v568q0 43 -30.5 69.5t-73.5 26.5h-713v-760z" />
<glyph unicode="e" horiz-adv-x="1611" d="M78 309v733q0 129 90.5 220.5t218.5 91.5h838q128 0 219.5 -91.5t91.5 -220.5v-514h-1106v-135q0 -43 31.5 -70.5t75.5 -27.5h999v-295h-1149q-127 0 -218 91t-91 218zM430 825h752v136q0 43 -31 69.5t-74 26.5h-540q-44 0 -75.5 -26.5t-31.5 -69.5v-136z" />
<glyph unicode="f" horiz-adv-x="1527" d="M78 0v1044q0 128 91 219t218 91h1065v-297h-915q-44 0 -75.5 -26.5t-31.5 -69.5v-148h1022v-297h-1022v-516h-352z" />
<glyph unicode="g" horiz-adv-x="1536" d="M78 309v735q0 128 91 219t218 91h1065v-297h-915q-44 0 -75.5 -26.5t-31.5 -69.5v-568q0 -43 31.5 -69.5t75.5 -26.5h571v231h-279v297h631v-825h-1073q-127 0 -218 91t-91 218z" />
<glyph unicode="h" horiz-adv-x="1619" d="M78 0v1354h352v-529h762v529h352v-1354h-352v528h-762v-528h-352z" />
<glyph unicode="i" horiz-adv-x="573" d="M111 0v807h352v-807h-352zM111 995v359h352v-359h-352z" />
<glyph unicode="j" horiz-adv-x="1341" d="M78 0v297h729q44 0 75 26.5t31 69.5v961h353v-1045q0 -127 -91 -218t-219 -91h-878z" />
<glyph unicode="k" horiz-adv-x="1595" d="M78 2v1352h352v-510h102l498 510h463l-498 -510h213q128 0 220 -91.5t92 -220.5v-532h-355v451q0 43 -30.5 69.5t-73.5 26.5h-631v-545h-352z" />
<glyph unicode="l" horiz-adv-x="1527" d="M78 309v1045h352v-961q0 -43 31.5 -69.5t75.5 -26.5h915v-297h-1065q-127 0 -218 91t-91 218z" />
<glyph unicode="m" horiz-adv-x="2324" d="M78 0v1354h1859q129 0 220.5 -91t91.5 -219v-1044h-355v961q0 43 -30.5 69.5t-73.5 26.5h-451v-1057h-352v1057h-557v-1057h-352z" />
<glyph unicode="n" d="M78 0v1354h1212q128 0 220 -91.5t92 -218.5v-1044h-355v961q0 43 -30.5 69.5t-73.5 26.5h-713v-1057h-352z" />
<glyph unicode="o" horiz-adv-x="1775" d="M78 309v735q0 128 91 219t218 91h1002q128 0 219.5 -91.5t91.5 -218.5v-735q0 -127 -91.5 -218t-219.5 -91h-1002q-127 0 -218 91t-91 218zM430 393q0 -43 31.5 -69.5t75.5 -26.5h704q43 0 74 26.5t31 69.5v568q0 43 -31 69.5t-74 26.5h-704q-44 0 -75.5 -26.5 t-31.5 -69.5v-568z" />
<glyph unicode="p" d="M78 0v1354h1212q128 0 220 -91.5t92 -218.5v-360q0 -129 -92 -220t-220 -91h-860v-373h-352zM430 670h713q43 0 73.5 26.5t30.5 69.5v195q0 43 -30.5 69.5t-73.5 26.5h-713v-387z" />
<glyph unicode="q" horiz-adv-x="1775" d="M78 309v735q0 128 91 219t218 91h1002q128 0 219.5 -91.5t91.5 -218.5v-735q0 -127 -91.5 -218t-219.5 -91h-392q1 -43 32 -68.5t75 -25.5h418v-297h-568q-128 0 -218.5 90.5t-90.5 218.5v82h-258q-127 0 -218 91t-91 218zM430 393q0 -43 31.5 -69.5t75.5 -26.5h704 q43 0 74 26.5t31 69.5v568q0 43 -31 69.5t-74 26.5h-704q-44 0 -75.5 -26.5t-31.5 -69.5v-568z" />
<glyph unicode="r" d="M78 0v1354h1212q128 0 220 -91.5t92 -218.5v-305q0 -111 -74 -198q69 -101 69 -248v-293h-352v313q0 45 -31 81t-73 36h-711v-430h-352zM430 725h713q44 0 74 27.5t30 70.5v138q0 43 -30.5 69.5t-73.5 26.5h-713v-332z" />
<glyph unicode="s" horiz-adv-x="1705" d="M78 0v297h1091q44 0 75.5 26.5t31.5 69.5v39q0 43 -31.5 69.5t-75.5 26.5h-682q-161 0 -277 116.5t-116 277.5v57q0 154 109.5 264.5t263.5 110.5h1092v-297h-1006q-43 0 -73.5 -26.5t-30.5 -69.5v-39q0 -43 30.5 -70t73.5 -27h682q163 0 279 -116t116 -277v-57 q0 -155 -109.5 -265t-263.5 -110h-1179z" />
<glyph unicode="t" horiz-adv-x="1808" d="M78 1057v297h1655v-297h-652v-1057h-352v1057h-651z" />
<glyph unicode="u" d="M78 309v1045h352v-961q0 -43 31.5 -69.5t75.5 -26.5h710v1057h355v-1354h-1215q-127 0 -218 91t-91 218z" />
<glyph unicode="v" d="M78 0v1354h352v-1057h494q133 0 228 87.5t95 219.5v750h355v-772q0 -118 -46.5 -225.5t-124.5 -185.5t-186 -124.5t-227 -46.5h-940z" />
<glyph unicode="w" horiz-adv-x="2324" d="M78 309v1045h352v-961q0 -43 31.5 -69.5t75.5 -26.5h450v1057h352v-1057h555v1057h355v-1354h-1862q-127 0 -218 91t-91 218z" />
<glyph unicode="x" horiz-adv-x="1957" d="M68 0l692 711l-627 643h490l356 -365l356 365h490l-627 -643l692 -711h-489l-422 432l-422 -432h-489z" />
<glyph unicode="y" horiz-adv-x="1529" d="M78 0v297h917q43 0 74 26.5t31 69.5v119h-713q-127 0 -218 91t-91 218v533h352v-449q0 -43 31.5 -70.5t75.5 -27.5h563v547h354v-1045q0 -127 -91.5 -218t-219.5 -91h-1065z" />
<glyph unicode="z" horiz-adv-x="1888" d="M78 154q0 71 51 110l1030 793h-1003v297h1507q63 0 103 -47t40 -109q0 -68 -51 -108l-1030 -795h1087v-295h-1591q-62 0 -102.5 47t-40.5 107z" />
<glyph unicode="{" horiz-adv-x="753" d="M78 379v295h78q26 0 44.5 19.5t18.5 45.5v308q0 127 90.5 217t216.5 90h152v-297h-96q-11 0 -11 -10v-308q0 -123 -69 -213q69 -90 69 -213v-307q0 -10 11 -10h96v-297h-152q-126 0 -216.5 90.5t-90.5 216.5v307q0 27 -18.5 46.5t-44.5 19.5h-78z" />
<glyph unicode="|" horiz-adv-x="464" d="M78 -393v2048h311v-2048h-311z" />
<glyph unicode="}" horiz-adv-x="753" d="M78 -4h96q10 0 10 10v307q0 121 70 213q-70 92 -70 213v308q0 10 -10 10h-96v297h153q126 0 216 -90t90 -217v-308q0 -27 19 -46t46 -19h76v-295h-76q-27 0 -46 -19.5t-19 -46.5v-307q0 -126 -90 -216.5t-216 -90.5h-153v297z" />
<glyph unicode="~" horiz-adv-x="7567" d="M49 1016q216 -74 483 -192t443 -200t215 -89q105 115 260 256t343.5 292t407 293t412.5 232q-175 -125 -317 -253.5t-236 -242t-158 -222.5t-92 -197.5t-28 -164.5q0 -107 57.5 -169t157.5 -62q164 0 370 160q-86 -170 -215.5 -296.5t-228.5 -162.5q-55 -18 -168 -18 q-124 0 -262 19t-209 48q-24 10 -56.5 40t-69 71.5t-91.5 100t-118 123t-154.5 142t-195.5 155.5t-247 166.5t-303 170.5zM834 907q0 95 71.5 162.5t171.5 67.5q101 0 173.5 -67.5t72.5 -162.5t-72.5 -163t-173.5 -68q-100 0 -171.5 68t-71.5 163zM2531 0v807h353v-807h-353 zM2531 995v359h353v-359h-353zM3072 0v1042q0 129 90.5 220.5t218.5 91.5h1065v-297h-915q-44 0 -75.5 -26.5t-31.5 -69.5v-150h1022v-295h-1022v-516h-352zM4600 309v1045h352v-961q0 -43 31.5 -70.5t75.5 -27.5h915v-295h-1065q-127 0 -218 91t-91 218zM6142 821v533h352 v-449q0 -44 31.5 -71t75.5 -27h565v547h352v-1045q0 -128 -91 -218.5t-220 -90.5h-1063v295h915q44 0 75.5 27.5t31.5 70.5v117h-713q-129 0 -220 91.5t-91 219.5z" />
<glyph unicode="&#xa1;" horiz-adv-x="563" d="M78 -246l65 932h279l65 -932h-409zM106 762v346h353v-346h-353z" />
<glyph unicode="&#xa2;" horiz-adv-x="1075" d="M78 444v463q0 103 73.5 176.5t176.5 73.5h137v197h295v-197h239v-297h-589v-368h589v-297h-239v-195h-295v195h-137q-103 0 -176.5 73t-73.5 176z" />
<glyph unicode="&#xa3;" horiz-adv-x="1646" d="M78 500v223h182v319q0 129 90.5 220.5t218.5 91.5h504v-297h-354q-44 0 -75.5 -26.5t-31.5 -69.5v-238h410v-223h-410v-205h959v-295h-1311v500h-182z" />
<glyph unicode="&#xa4;" horiz-adv-x="1826" d="M78 424l106 223h144v58h-246l106 223h140v114q0 129 90.5 220.5t218.5 91.5h1114l-141 -297h-824q-44 0 -75 -26.5t-31 -69.5v-33h864l-106 -223h-758v-58h731l-106 -223h-625v-31q0 -43 31 -70.5t75 -27.5h709l141 -295h-999q-127 0 -218 91t-91 218v115h-250z" />
<glyph unicode="&#xa5;" horiz-adv-x="1636" d="M78 145v222h565v53h-90q-19 0 -51 4h-424v223q21 0 68.5 -1t64.5 -1l31 2v707h352v-611q0 -43 31 -69.5t75 -26.5h238q43 0 73.5 26.5t30.5 69.5v611h355v-707q10 -2 28 -2q17 0 66 1t70 1v-223h-426q-28 -4 -50 -4h-90v-53h566v-222h-566v-145h-352v145h-565z" />
<glyph unicode="&#xa6;" horiz-adv-x="464" d="M78 -393v946h311v-946h-311zM78 709v946h311v-946h-311z" />
<glyph unicode="&#xa7;" horiz-adv-x="1458" d="M78 479v47q0 125 84 222q-84 97 -84 227v45q0 138 97.5 236t234.5 98h850v-297h-781q-25 0 -42 -13.5t-17 -37.5v-31q0 -25 17 -39t42 -14h555q143 0 245.5 -102.5t102.5 -244.5v-47q0 -124 -84 -221q84 -100 84 -227v-47q0 -137 -97.5 -234.5t-233.5 -97.5h-922v295h852 q25 0 42 14t17 39v31q0 24 -17 37.5t-42 13.5h-555q-142 0 -245 102.5t-103 245.5zM420 492h561q25 0 42 13.5t17 37.5v18h-561q-25 0 -42 -13.5t-17 -37.5v-18z" />
<glyph unicode="&#xa8;" horiz-adv-x="970" d="M78 1638q0 77 55 132t131 55t131.5 -55.5t55.5 -131.5t-55 -131t-132 -55q-76 0 -131 55t-55 131zM522 1638q0 76 55 131.5t132 55.5q76 0 131 -55t55 -132q0 -76 -54.5 -131t-131.5 -55t-132 55t-55 131z" />
<glyph unicode="&#xa9;" horiz-adv-x="1507" d="M78 676q0 137 54 262.5t145 216.5t216.5 145t262.5 54t262.5 -54t216 -145t144 -216.5t53.5 -262.5t-53.5 -262.5t-144 -216t-216 -144t-262.5 -53.5t-262.5 53.5t-216.5 144t-145 216t-54 262.5zM174 676q0 -157 78.5 -290.5t212.5 -211.5t291 -78t290.5 78t211 211.5 t77.5 290.5q0 118 -46 225.5t-123.5 185t-185 124t-224.5 46.5q-157 0 -291 -78t-212.5 -212t-78.5 -291zM346 489v373q0 85 59 144t142 59h543v-240h-476v-299h476v-239h-543q-83 0 -142 59.5t-59 142.5z" />
<glyph unicode="&#xaa;" horiz-adv-x="974" d="M78 319v228h821v-228h-821zM78 784v113q0 82 57 139.5t137 57.5h373v22q0 12 -16 12h-453v226h529q81 0 137.5 -57.5t56.5 -139.5v-569h-627q-80 0 -137 57.5t-57 138.5zM332 827q0 -12 16 -12h297v53h-297q-16 0 -16 -12v-29z" />
<glyph unicode="&#xab;" horiz-adv-x="1128" d="M78 412l219 413h326l-220 -413l220 -412h-326zM508 412l219 413h326l-219 -413l219 -412h-326z" />
<glyph unicode="&#xac;" horiz-adv-x="1148" d="M78 528v297h995v-491h-297v194h-698z" />
<glyph unicode="&#xad;" horiz-adv-x="1064" d="M78 528v297h911v-297h-911z" />
<glyph unicode="&#xae;" horiz-adv-x="1046" d="M78 989q0 185 131 316t315 131t315.5 -131t131.5 -316q0 -184 -131 -315t-316 -131q-184 0 -315 130.5t-131 315.5zM141 989q0 -158 112.5 -270.5t270.5 -112.5t270.5 112.5t112.5 270.5t-112.5 270.5t-270.5 112.5t-270.5 -112.5t-112.5 -270.5zM285 762v455h368 q46 0 78.5 -32.5t32.5 -78.5v-92q0 -32 -16 -58q14 -28 14 -65v-129h-141v141h-193v-141h-143zM428 1020h193v70h-193v-70z" />
<glyph unicode="&#xaf;" horiz-adv-x="966" d="M78 1446v223h813v-223h-813z" />
<glyph unicode="&#xb0;" horiz-adv-x="792" d="M78 1034q0 132 93.5 226t225.5 94t226 -94t94 -226t-94 -225.5t-226 -93.5t-225.5 93.5t-93.5 225.5zM311 1034q0 -35 25.5 -60.5t60.5 -25.5t60.5 25.5t25.5 60.5q0 34 -25.5 60t-60.5 26t-60.5 -26t-25.5 -60z" />
<glyph unicode="&#xb1;" horiz-adv-x="1064" d="M78 0v295h307v233h-307v297h307v308h297v-308h307v-297h-307v-233h307v-295h-911z" />
<glyph unicode="&#xb2;" horiz-adv-x="858" d="M78 721v213q0 80 57.5 138t138.5 58h285q12 0 12 11v16q0 10 -12 10h-430v187h492q66 0 113.5 -52.5t47.5 -127.5v-33q0 -82 -57 -139.5t-139 -57.5h-283q-14 0 -14 -10v-27h493v-186h-704z" />
<glyph unicode="&#xb3;" horiz-adv-x="770" d="M78 721v186h391q14 0 14 11v26q0 10 -14 10h-391v164h391q14 0 14 10v29q0 10 -14 10h-391v187h426q78 0 134 -56t56 -133v-24q0 -55 -30 -107q30 -48 30 -100v-25q0 -78 -56 -133t-134 -55h-426z" />
<glyph unicode="&#xb4;" horiz-adv-x="1060" d="M78 1446l547 432h360l-549 -432h-358z" />
<glyph unicode="&#xb5;" d="M78 -240v1221h352v-686h713q43 0 73.5 27.5t30.5 70.5v588h355v-672q0 -127 -92 -218t-220 -91h-860v-240h-352z" />
<glyph unicode="&#xb6;" horiz-adv-x="1824" d="M78 561v481q0 129 90.5 220.5t218.5 91.5h1362v-297h-147v-1186h-297v1186h-70v-1186h-297v381h-551q-127 0 -218 91t-91 218z" />
<glyph unicode="&#xb7;" horiz-adv-x="505" d="M78 475v346h352v-346h-352z" />
<glyph unicode="&#xb8;" horiz-adv-x="870" d="M150 -375h421v117h-282v338h188v-150h139q60 0 101 -41t41 -98v-213q0 -59 -41 -100t-101 -41h-354z" />
<glyph unicode="&#xb9;" horiz-adv-x="475" d="M78 1167v187h321v-633h-211v446h-110z" />
<glyph unicode="&#xba;" horiz-adv-x="1054" d="M78 319v228h901v-228h-901zM78 784v373q0 82 57 139.5t137 57.5h510q80 0 138.5 -59t58.5 -138v-373q0 -79 -58 -137.5t-139 -58.5h-510q-79 0 -136.5 58t-57.5 138zM332 825q0 -10 16 -10h359q18 0 18 10v291q0 12 -16 12h-361q-16 0 -16 -12v-291z" />
<glyph unicode="&#xbb;" horiz-adv-x="1128" d="M78 0l219 412l-219 413h325l220 -413l-220 -412h-325zM508 0l219 412l-219 413h326l219 -413l-219 -412h-326z" />
<glyph unicode="&#xbc;" horiz-adv-x="2598" d="M78 1057v297h510v-1006h-336v709h-174zM385 0l1106 1354h381l-1106 -1354h-381zM1325 207v299l623 498h440v-500h135v-297h-135v-207h-336v207h-727zM1798 504h254v205z" />
<glyph unicode="&#xbd;" horiz-adv-x="2772" d="M78 1057v297h510v-1006h-336v709h-174zM371 0l1106 1354h381l-1106 -1354h-381zM1579 0v338q0 129 92 220t221 91h449q22 0 22 17v26q0 17 -22 17h-682v295h782q105 0 180.5 -83t75.5 -202v-53q0 -129 -92 -220.5t-221 -91.5h-449q-22 0 -22 -16v-43h782v-295h-1116z" />
<glyph unicode="&#xbe;" horiz-adv-x="2871" d="M78 348v297h622q21 0 21 17v43q0 16 -21 16h-622v260h620q23 0 23 14v45q0 17 -23 17h-620v297h678q123 0 211 -88.5t88 -212.5v-37q0 -94 -47 -168q47 -68 47 -162v-39q0 -123 -88 -211t-211 -88h-678zM702 0l1106 1354h383l-1106 -1354h-383zM1597 207v299l623 498h438 v-500h138v-297h-138v-207h-334v207h-727zM2068 504h256v205z" />
<glyph unicode="&#xbf;" horiz-adv-x="1585" d="M78 63v121q0 163 116 279.5t277 116.5h205q43 0 73.5 26.5t30.5 69.5v10h355v-10q0 -162 -116.5 -277.5t-279.5 -115.5h-202q-44 0 -75.5 -27.5t-31.5 -71.5v-37q0 -43 31.5 -70.5t75.5 -27.5h972v-295h-1122q-127 0 -218 91t-91 218zM780 762v346h355v-346h-355z" />
<glyph unicode="&#xc0;" d="M78 0v1044q0 128 91 219t218 91h1215v-1354h-355v528h-817v-528h-352zM209 1878h358l549 -432h-360zM430 825h817v232h-710q-44 0 -75.5 -26.5t-31.5 -69.5v-136z" />
<glyph unicode="&#xc1;" d="M78 0v1044q0 128 91 219t218 91h1215v-1354h-355v528h-817v-528h-352zM430 825h817v232h-710q-44 0 -75.5 -26.5t-31.5 -69.5v-136zM565 1446l547 432h361l-549 -432h-359z" />
<glyph unicode="&#xc2;" d="M78 0v1044q0 128 91 219t218 91h1215v-1354h-355v528h-817v-528h-352zM303 1450l457 457h158l456 -457h-313l-221 221l-222 -221h-315zM430 825h817v232h-710q-44 0 -75.5 -26.5t-31.5 -69.5v-136z" />
<glyph unicode="&#xc3;" d="M78 0v1044q0 128 91 219t218 91h1215v-1354h-355v528h-817v-528h-352zM182 1593q41 135 156 219t256 84q84 0 156 -33.5t155 -97.5q34 -27 56.5 -43t61 -33.5t69.5 -17.5q68 0 124.5 40t79.5 104l199 -74q-46 -126 -157 -204.5t-246 -78.5q-83 0 -157 36t-159 101 q-35 28 -56.5 43.5t-57.5 31.5t-68 16q-72 0 -129.5 -43.5t-79.5 -112.5zM430 825h817v232h-710q-44 0 -75.5 -26.5t-31.5 -69.5v-136z" />
<glyph unicode="&#xc4;" d="M78 0v1044q0 128 91 219t218 91h1215v-1354h-355v528h-817v-528h-352zM430 825h817v232h-710q-44 0 -75.5 -26.5t-31.5 -69.5v-136zM430 1638q0 77 55 132t131 55t131.5 -55.5t55.5 -131.5t-55 -131t-132 -55q-76 0 -131 55t-55 131zM874 1638q0 76 55 131.5t132 55.5 q76 0 131 -55t55 -132q0 -76 -54.5 -131t-131.5 -55t-132 55t-55 131z" />
<glyph unicode="&#xc5;" d="M78 0v1044q0 128 91 219t218 91h1215v-1354h-355v528h-817v-528h-352zM430 825h817v232h-710q-44 0 -75.5 -26.5t-31.5 -69.5v-136zM668 1559q0 104 73.5 176.5t176.5 72.5t176 -72.5t73 -176.5q0 -101 -74 -174.5t-175 -73.5q-103 0 -176.5 73.5t-73.5 174.5zM791 1559 q0 -51 37.5 -89t89.5 -38t89 38t37 89q0 54 -36.5 91.5t-89.5 37.5t-90 -37.5t-37 -91.5z" />
<glyph unicode="&#xc6;" horiz-adv-x="2699" d="M78 0v1042q0 129 90.5 220.5t218.5 91.5h2236v-297h-917q-43 0 -73.5 -26.5t-30.5 -69.5v-136h1021v-297h-1021v-135q0 -43 30.5 -70.5t73.5 -27.5h917v-295h-1376v528h-817v-528h-352zM430 825h817v232h-710q-44 0 -75.5 -26.5t-31.5 -69.5v-136z" />
<glyph unicode="&#xc7;" horiz-adv-x="1527" d="M78 309v735q0 128 91 219t218 91h1065v-297h-915q-44 0 -75.5 -26.5t-31.5 -69.5v-568q0 -43 31.5 -69.5t75.5 -26.5h915v-297h-1065q-127 0 -218 91t-91 218zM477 -375h422v117h-283v338h189v-150h139q60 0 100.5 -41t40.5 -98v-213q0 -59 -40.5 -100t-100.5 -41h-354z " />
<glyph unicode="&#xc8;" horiz-adv-x="1527" d="M78 309v735q0 128 91 219t218 91h1065v-297h-915q-44 0 -75.5 -26.5t-31.5 -69.5v-136h1022v-297h-1022v-135q0 -43 31.5 -69.5t75.5 -26.5h915v-297h-1065q-127 0 -218 91t-91 218zM309 1878h359l549 -432h-361z" />
<glyph unicode="&#xc9;" horiz-adv-x="1527" d="M78 309v735q0 128 91 219t218 91h1065v-297h-915q-44 0 -75.5 -26.5t-31.5 -69.5v-136h1022v-297h-1022v-135q0 -43 31.5 -69.5t75.5 -26.5h915v-297h-1065q-127 0 -218 91t-91 218zM481 1446l547 432h361l-549 -432h-359z" />
<glyph unicode="&#xca;" horiz-adv-x="1527" d="M78 309v735q0 128 91 219t218 91h1065v-297h-915q-44 0 -75.5 -26.5t-31.5 -69.5v-136h1022v-297h-1022v-135q0 -43 31.5 -69.5t75.5 -26.5h915v-297h-1065q-127 0 -218 91t-91 218zM313 1450l457 457h158l456 -457h-313l-221 221l-221 -221h-316z" />
<glyph unicode="&#xcb;" horiz-adv-x="1527" d="M78 309v735q0 128 91 219t218 91h1065v-297h-915q-44 0 -75.5 -26.5t-31.5 -69.5v-136h1022v-297h-1022v-135q0 -43 31.5 -69.5t75.5 -26.5h915v-297h-1065q-127 0 -218 91t-91 218zM455 1638q0 77 55 132t131 55t131 -55t55 -132q0 -76 -54.5 -131t-131.5 -55t-131.5 55 t-54.5 131zM899 1638q0 77 55 132t131 55q77 0 132 -55.5t55 -131.5t-55 -131t-132 -55t-131.5 55t-54.5 131z" />
<glyph unicode="&#xcc;" horiz-adv-x="573" d="M-455 1878h359l549 -432h-361zM111 0v1354h352v-1354h-352z" />
<glyph unicode="&#xcd;" horiz-adv-x="573" d="M88 1446l547 432h360l-549 -432h-358zM111 0v1354h352v-1354h-352z" />
<glyph unicode="&#xce;" horiz-adv-x="573" d="M-248 1450l457 457h158l456 -457h-313l-221 221l-221 -221h-316zM111 0v1354h352v-1354h-352z" />
<glyph unicode="&#xcf;" horiz-adv-x="573" d="M-121 1638q0 76 55.5 131.5t131.5 55.5t131 -55t55 -132q0 -76 -55 -131t-131 -55q-77 0 -132 55t-55 131zM111 0v1354h352v-1354h-352zM324 1638q0 77 55 132t131 55t131 -55t55 -132q0 -76 -55 -131t-131 -55t-131 55t-55 131z" />
<glyph unicode="&#xd0;" horiz-adv-x="1902" d="M78 528v297h225v529h1213q129 0 220 -91.5t91 -220.5v-733q0 -128 -91 -218.5t-220 -90.5h-1213v528h-225zM655 295h713q43 0 75 27.5t32 70.5v568q0 43 -32 69.5t-75 26.5h-713v-232h240v-297h-240v-233z" />
<glyph unicode="&#xd1;" d="M78 0v1354h1212q128 0 220 -91.5t92 -218.5v-1044h-355v961q0 43 -30.5 69.5t-73.5 26.5h-713v-1057h-352zM182 1593q41 135 156 219t256 84q84 0 156 -33.5t155 -97.5q34 -27 56.5 -43t61 -33.5t69.5 -17.5q68 0 124.5 40t79.5 104l199 -74q-46 -126 -157 -204.5 t-246 -78.5q-83 0 -157 36t-159 101q-35 28 -56.5 43.5t-57.5 31.5t-68 16q-72 0 -129.5 -43.5t-79.5 -112.5z" />
<glyph unicode="&#xd2;" horiz-adv-x="1775" d="M78 309v735q0 128 91 219t218 91h1002q128 0 219.5 -91.5t91.5 -218.5v-735q0 -127 -91.5 -218t-219.5 -91h-1002q-127 0 -218 91t-91 218zM315 1878h359l549 -432h-361zM430 393q0 -43 31.5 -69.5t75.5 -26.5h704q43 0 74 26.5t31 69.5v568q0 43 -31 69.5t-74 26.5h-704 q-44 0 -75.5 -26.5t-31.5 -69.5v-568z" />
<glyph unicode="&#xd3;" horiz-adv-x="1775" d="M78 309v735q0 128 91 219t218 91h1002q128 0 219.5 -91.5t91.5 -218.5v-735q0 -127 -91.5 -218t-219.5 -91h-1002q-127 0 -218 91t-91 218zM430 393q0 -43 31.5 -69.5t75.5 -26.5h704q43 0 74 26.5t31 69.5v568q0 43 -31 69.5t-74 26.5h-704q-44 0 -75.5 -26.5 t-31.5 -69.5v-568zM553 1446l547 432h360l-549 -432h-358z" />
<glyph unicode="&#xd4;" horiz-adv-x="1775" d="M78 309v735q0 128 91 219t218 91h1002q128 0 219.5 -91.5t91.5 -218.5v-735q0 -127 -91.5 -218t-219.5 -91h-1002q-127 0 -218 91t-91 218zM352 1450l457 457h158l456 -457h-313l-221 221l-221 -221h-316zM430 393q0 -43 31.5 -69.5t75.5 -26.5h704q43 0 74 26.5t31 69.5 v568q0 43 -31 69.5t-74 26.5h-704q-44 0 -75.5 -26.5t-31.5 -69.5v-568z" />
<glyph unicode="&#xd5;" horiz-adv-x="1775" d="M78 309v735q0 128 91 219t218 91h1002q128 0 219.5 -91.5t91.5 -218.5v-735q0 -127 -91.5 -218t-219.5 -91h-1002q-127 0 -218 91t-91 218zM231 1593q41 135 156 219t256 84q84 0 156 -33.5t155 -97.5q34 -27 56.5 -43t61 -33.5t69.5 -17.5q68 0 125 40t80 104l198 -74 q-46 -126 -157 -204.5t-246 -78.5q-83 0 -157 36t-159 101q-35 28 -56.5 43.5t-57.5 31.5t-68 16q-72 0 -129.5 -43.5t-79.5 -112.5zM430 393q0 -43 31.5 -69.5t75.5 -26.5h704q43 0 74 26.5t31 69.5v568q0 43 -31 69.5t-74 26.5h-704q-44 0 -75.5 -26.5t-31.5 -69.5v-568z " />
<glyph unicode="&#xd6;" horiz-adv-x="1775" d="M78 309v735q0 128 91 219t218 91h1002q128 0 219.5 -91.5t91.5 -218.5v-735q0 -127 -91.5 -218t-219.5 -91h-1002q-127 0 -218 91t-91 218zM430 393q0 -43 31.5 -69.5t75.5 -26.5h704q43 0 74 26.5t31 69.5v568q0 43 -31 69.5t-74 26.5h-704q-44 0 -75.5 -26.5 t-31.5 -69.5v-568zM479 1638q0 76 55.5 131.5t131.5 55.5t131 -55t55 -132q0 -76 -55 -131t-131 -55q-77 0 -132 55t-55 131zM924 1638q0 77 55 132t131 55t131 -55t55 -132q0 -76 -55 -131t-131 -55t-131 55t-55 131z" />
<glyph unicode="&#xd7;" horiz-adv-x="1073" d="M78 426l250 250l-250 250l209 211l252 -250l249 250l209 -211l-249 -250l249 -250l-209 -209l-249 250l-252 -250z" />
<glyph unicode="&#xd8;" horiz-adv-x="2031" d="M78 0l176 143q-47 74 -47 166v733q0 129 90.5 220.5t218.5 91.5h1002q81 0 153 -43l51 43h234l-176 -146q47 -71 47 -166v-733q0 -127 -90.5 -218t-218.5 -91h-1002q-85 0 -156 41l-49 -41h-233zM559 395l803 662h-696q-44 0 -75.5 -26.5t-31.5 -69.5v-566zM670 295h698 q44 0 75.5 27.5t31.5 70.5v565z" />
<glyph unicode="&#xd9;" d="M78 309v1045h352v-961q0 -43 31.5 -69.5t75.5 -26.5h710v1057h355v-1354h-1215q-127 0 -218 91t-91 218zM285 1878h358l549 -432h-361z" />
<glyph unicode="&#xda;" d="M78 309v1045h352v-961q0 -43 31.5 -69.5t75.5 -26.5h710v1057h355v-1354h-1215q-127 0 -218 91t-91 218zM485 1446l547 432h361l-549 -432h-359z" />
<glyph unicode="&#xdb;" d="M78 309v1045h352v-961q0 -43 31.5 -69.5t75.5 -26.5h710v1057h355v-1354h-1215q-127 0 -218 91t-91 218zM303 1450l457 457h158l456 -457h-313l-221 221l-222 -221h-315z" />
<glyph unicode="&#xdc;" d="M78 309v1045h352v-961q0 -43 31.5 -69.5t75.5 -26.5h710v1057h355v-1354h-1215q-127 0 -218 91t-91 218zM430 1638q0 77 55 132t131 55t131.5 -55.5t55.5 -131.5t-55 -131t-132 -55q-76 0 -131 55t-55 131zM874 1638q0 76 55 131.5t132 55.5q76 0 131 -55t55 -132 q0 -76 -54.5 -131t-131.5 -55t-132 55t-55 131z" />
<glyph unicode="&#xdd;" horiz-adv-x="1529" d="M78 0v297h917q43 0 74 26.5t31 69.5v119h-713q-127 0 -218 91t-91 218v533h352v-449q0 -43 31.5 -70.5t75.5 -27.5h563v547h354v-1045q0 -127 -91.5 -218t-219.5 -91h-1065zM403 1446l547 432h361l-549 -432h-359z" />
<glyph unicode="&#xde;" horiz-adv-x="1593" d="M78 0v1354h352v-187h778q127 0 218.5 -91.5t91.5 -219.5v-360q0 -128 -91 -219t-219 -91h-778v-186h-352zM430 483h629q44 0 75 27t31 70v192q0 44 -31 71t-75 27h-629v-387z" />
<glyph unicode="&#xdf;" horiz-adv-x="1763" d="M172 0v979q0 158 111 266.5t262 108.5h674q155 0 264.5 -110.5t109.5 -264.5v-57q0 -102 -49 -189q68 -56 106 -136t38 -167v-57q0 -154 -110.5 -263.5t-264.5 -109.5h-590v295h506q43 0 74.5 27.5t31.5 70.5v37q0 40 -28 68q-8 8 -27.5 15.5t-35.5 10.5l-15 4h-506v297 h412q44 0 75 27t31 70v39q0 43 -31 69.5t-75 26.5h-504q-44 0 -75.5 -26.5t-31.5 -69.5v-961h-352z" />
<glyph unicode="&#xe0;" horiz-adv-x="1619" d="M78 309v223q0 128 91 220t218 92h805v117q0 43 -31.5 69.5t-75.5 26.5h-886v297h1036q128 0 218.5 -91.5t90.5 -220.5v-1042h-1157q-127 0 -218 91t-91 218zM309 1878h359l549 -432h-361zM430 393q0 -43 31.5 -70.5t75.5 -27.5h655v252h-655q-44 0 -75.5 -26.5 t-31.5 -69.5v-58z" />
<glyph unicode="&#xe1;" horiz-adv-x="1619" d="M78 309v223q0 128 91 220t218 92h805v117q0 43 -31.5 69.5t-75.5 26.5h-886v297h1036q128 0 218.5 -91.5t90.5 -220.5v-1042h-1157q-127 0 -218 91t-91 218zM430 393q0 -43 31.5 -70.5t75.5 -27.5h655v252h-655q-44 0 -75.5 -26.5t-31.5 -69.5v-58zM449 1446l546 432h361 l-549 -432h-358z" />
<glyph unicode="&#xe2;" horiz-adv-x="1619" d="M78 309v223q0 128 91 220t218 92h805v117q0 43 -31.5 69.5t-75.5 26.5h-886v297h1036q128 0 218.5 -91.5t90.5 -220.5v-1042h-1157q-127 0 -218 91t-91 218zM274 1450l457 457h158l457 -457h-314l-221 221l-221 -221h-316zM430 393q0 -43 31.5 -70.5t75.5 -27.5h655v252 h-655q-44 0 -75.5 -26.5t-31.5 -69.5v-58z" />
<glyph unicode="&#xe3;" horiz-adv-x="1619" d="M78 309v223q0 128 91 220t218 92h805v117q0 43 -31.5 69.5t-75.5 26.5h-886v297h1036q128 0 218.5 -91.5t90.5 -220.5v-1042h-1157q-127 0 -218 91t-91 218zM154 1593q41 135 155.5 219t255.5 84q84 0 156.5 -34t155.5 -97q35 -28 57 -43.5t60 -33t69 -17.5q68 0 125 40 t80 104l198 -74q-46 -126 -157 -204.5t-246 -78.5q-83 0 -156 36t-159 101q-34 27 -56.5 43t-58.5 32t-68 16q-72 0 -129.5 -43.5t-79.5 -112.5zM430 393q0 -43 31.5 -70.5t75.5 -27.5h655v252h-655q-44 0 -75.5 -26.5t-31.5 -69.5v-58z" />
<glyph unicode="&#xe4;" horiz-adv-x="1619" d="M78 309v223q0 128 91 220t218 92h805v117q0 43 -31.5 69.5t-75.5 26.5h-886v297h1036q128 0 218.5 -91.5t90.5 -220.5v-1042h-1157q-127 0 -218 91t-91 218zM401 1638q0 76 55.5 131.5t131.5 55.5t131 -55t55 -132q0 -76 -55 -131t-131 -55q-77 0 -132 55t-55 131z M430 393q0 -43 31.5 -70.5t75.5 -27.5h655v252h-655q-44 0 -75.5 -26.5t-31.5 -69.5v-58zM846 1638q0 77 55 132t131 55t131.5 -55.5t55.5 -131.5t-55 -131t-132 -55q-76 0 -131 55t-55 131z" />
<glyph unicode="&#xe5;" horiz-adv-x="1619" d="M78 309v223q0 128 91 220t218 92h805v117q0 43 -31.5 69.5t-75.5 26.5h-886v297h1036q128 0 218.5 -91.5t90.5 -220.5v-1042h-1157q-127 0 -218 91t-91 218zM430 393q0 -43 31.5 -70.5t75.5 -27.5h655v252h-655q-44 0 -75.5 -26.5t-31.5 -69.5v-58zM635 1569 q0 104 73.5 177t176.5 73t176.5 -73t73.5 -177q0 -101 -74.5 -174.5t-175.5 -73.5q-103 0 -176.5 73.5t-73.5 174.5zM758 1569q0 -51 37.5 -89t89.5 -38t89.5 38t37.5 89q0 54 -37 91.5t-90 37.5t-90 -37.5t-37 -91.5z" />
<glyph unicode="&#xe6;" horiz-adv-x="2725" d="M78 309v223q0 128 91 220t218 92h805v117q0 43 -31.5 69.5t-75.5 26.5h-886v297h1036q62 0 133 -31q71 31 135 31h836q129 0 220 -91.5t91 -220.5v-514h-1106v-135q0 -43 31.5 -70.5t75.5 -27.5h999v-295h-2263q-127 0 -218 91t-91 218zM430 393q0 -43 31.5 -70.5 t75.5 -27.5h655v252h-655q-44 0 -75.5 -27t-31.5 -71v-56zM1544 825h754v136q0 43 -32 69.5t-75 26.5h-540q-44 0 -75.5 -26.5t-31.5 -69.5v-136z" />
<glyph unicode="&#xe7;" horiz-adv-x="1527" d="M78 309v735q0 128 91 219t218 91h1065v-297h-915q-44 0 -75.5 -26.5t-31.5 -69.5v-568q0 -43 31.5 -69.5t75.5 -26.5h915v-297h-1065q-127 0 -218 91t-91 218zM477 -375h422v117h-283v338h189v-150h139q60 0 100.5 -41t40.5 -98v-213q0 -59 -40.5 -100t-100.5 -41h-354z " />
<glyph unicode="&#xe8;" horiz-adv-x="1611" d="M78 309v733q0 129 90.5 220.5t218.5 91.5h838q128 0 219.5 -91.5t91.5 -220.5v-514h-1106v-135q0 -43 31.5 -70.5t75.5 -27.5h999v-295h-1149q-127 0 -218 91t-91 218zM240 1878h358l549 -432h-361zM430 825h752v136q0 43 -31 69.5t-74 26.5h-540q-44 0 -75.5 -26.5 t-31.5 -69.5v-136z" />
<glyph unicode="&#xe9;" horiz-adv-x="1611" d="M78 309v733q0 129 90.5 220.5t218.5 91.5h838q128 0 219.5 -91.5t91.5 -220.5v-514h-1106v-135q0 -43 31.5 -70.5t75.5 -27.5h999v-295h-1149q-127 0 -218 91t-91 218zM430 825h752v136q0 43 -31 69.5t-74 26.5h-540q-44 0 -75.5 -26.5t-31.5 -69.5v-136zM516 1446 l547 432h360l-549 -432h-358z" />
<glyph unicode="&#xea;" horiz-adv-x="1611" d="M78 309v733q0 129 90.5 220.5t218.5 91.5h838q128 0 219.5 -91.5t91.5 -220.5v-514h-1106v-135q0 -43 31.5 -70.5t75.5 -27.5h999v-295h-1149q-127 0 -218 91t-91 218zM270 1450l457 457h158l456 -457h-313l-221 221l-221 -221h-316zM430 825h752v136q0 43 -31 69.5 t-74 26.5h-540q-44 0 -75.5 -26.5t-31.5 -69.5v-136z" />
<glyph unicode="&#xeb;" horiz-adv-x="1611" d="M78 309v733q0 129 90.5 220.5t218.5 91.5h838q128 0 219.5 -91.5t91.5 -220.5v-514h-1106v-135q0 -43 31.5 -70.5t75.5 -27.5h999v-295h-1149q-127 0 -218 91t-91 218zM397 1638q0 76 55.5 131.5t131.5 55.5t131 -55t55 -132q0 -76 -55 -131t-131 -55q-77 0 -132 55 t-55 131zM430 825h752v136q0 43 -31 69.5t-74 26.5h-540q-44 0 -75.5 -26.5t-31.5 -69.5v-136zM842 1638q0 77 55 132t131 55t131 -55t55 -132q0 -76 -55 -131t-131 -55t-131 55t-55 131z" />
<glyph unicode="&#xec;" horiz-adv-x="573" d="M-430 1878h358l549 -432h-360zM111 -2v1354h352v-1354h-352z" />
<glyph unicode="&#xed;" horiz-adv-x="573" d="M78 1446l547 432h360l-549 -432h-358zM111 -2v1354h352v-1354h-352z" />
<glyph unicode="&#xee;" horiz-adv-x="573" d="M-248 1450l457 457h158l456 -457h-313l-221 221l-221 -221h-316zM111 -2v1354h352v-1354h-352z" />
<glyph unicode="&#xef;" horiz-adv-x="573" d="M-121 1638q0 76 55.5 131.5t131.5 55.5t131 -55t55 -132q0 -76 -55 -131t-131 -55q-77 0 -132 55t-55 131zM111 -2v1354h352v-1354h-352zM324 1638q0 77 55 132t131 55t131 -55t55 -132q0 -76 -55 -131t-131 -55t-131 55t-55 131z" />
<glyph unicode="&#xf0;" horiz-adv-x="1902" d="M78 528v297h225v529h1213q129 0 220 -91.5t91 -220.5v-733q0 -128 -91 -218.5t-220 -90.5h-1213v528h-225zM655 295h713q43 0 75 27.5t32 70.5v568q0 43 -32 69.5t-75 26.5h-713v-232h240v-297h-240v-233z" />
<glyph unicode="&#xf1;" d="M78 0v1354h1212q128 0 220 -91.5t92 -218.5v-1044h-355v961q0 43 -30.5 69.5t-73.5 26.5h-713v-1057h-352zM182 1593q41 135 156 219t256 84q84 0 156 -33.5t155 -97.5q34 -27 56.5 -43t61 -33.5t69.5 -17.5q68 0 124.5 40t79.5 104l199 -74q-46 -126 -157 -204.5 t-246 -78.5q-83 0 -157 36t-159 101q-35 28 -56.5 43.5t-57.5 31.5t-68 16q-72 0 -129.5 -43.5t-79.5 -112.5z" />
<glyph unicode="&#xf2;" horiz-adv-x="1775" d="M78 309v735q0 128 91 219t218 91h1002q128 0 219.5 -91.5t91.5 -218.5v-735q0 -127 -91.5 -218t-219.5 -91h-1002q-127 0 -218 91t-91 218zM326 1878h358l549 -432h-361zM430 393q0 -43 31.5 -69.5t75.5 -26.5h704q43 0 74 26.5t31 69.5v568q0 43 -31 69.5t-74 26.5h-704 q-44 0 -75.5 -26.5t-31.5 -69.5v-568z" />
<glyph unicode="&#xf3;" horiz-adv-x="1775" d="M78 309v735q0 128 91 219t218 91h1002q128 0 219.5 -91.5t91.5 -218.5v-735q0 -127 -91.5 -218t-219.5 -91h-1002q-127 0 -218 91t-91 218zM430 393q0 -43 31.5 -69.5t75.5 -26.5h704q43 0 74 26.5t31 69.5v568q0 43 -31 69.5t-74 26.5h-704q-44 0 -75.5 -26.5 t-31.5 -69.5v-568zM530 1446l547 432h361l-549 -432h-359z" />
<glyph unicode="&#xf4;" horiz-adv-x="1775" d="M78 309v735q0 128 91 219t218 91h1002q128 0 219.5 -91.5t91.5 -218.5v-735q0 -127 -91.5 -218t-219.5 -91h-1002q-127 0 -218 91t-91 218zM352 1450l457 457h158l456 -457h-313l-221 221l-221 -221h-316zM430 393q0 -43 31.5 -69.5t75.5 -26.5h704q43 0 74 26.5t31 69.5 v568q0 43 -31 69.5t-74 26.5h-704q-44 0 -75.5 -26.5t-31.5 -69.5v-568z" />
<glyph unicode="&#xf5;" horiz-adv-x="1775" d="M78 309v735q0 128 91 219t218 91h1002q128 0 219.5 -91.5t91.5 -218.5v-735q0 -127 -91.5 -218t-219.5 -91h-1002q-127 0 -218 91t-91 218zM231 1593q41 135 156 219t256 84q84 0 156 -33.5t155 -97.5q34 -27 56.5 -43t61 -33.5t69.5 -17.5q68 0 125 40t80 104l198 -74 q-46 -126 -157 -204.5t-246 -78.5q-83 0 -157 36t-159 101q-35 28 -56.5 43.5t-57.5 31.5t-68 16q-72 0 -129.5 -43.5t-79.5 -112.5zM430 393q0 -43 31.5 -69.5t75.5 -26.5h704q43 0 74 26.5t31 69.5v568q0 43 -31 69.5t-74 26.5h-704q-44 0 -75.5 -26.5t-31.5 -69.5v-568z " />
<glyph unicode="&#xf6;" horiz-adv-x="1775" d="M78 309v735q0 128 91 219t218 91h1002q128 0 219.5 -91.5t91.5 -218.5v-735q0 -127 -91.5 -218t-219.5 -91h-1002q-127 0 -218 91t-91 218zM430 393q0 -43 31.5 -69.5t75.5 -26.5h704q43 0 74 26.5t31 69.5v568q0 43 -31 69.5t-74 26.5h-704q-44 0 -75.5 -26.5 t-31.5 -69.5v-568zM479 1638q0 76 55.5 131.5t131.5 55.5t131 -55t55 -132q0 -76 -55 -131t-131 -55q-77 0 -132 55t-55 131zM924 1638q0 77 55 132t131 55t131 -55t55 -132q0 -76 -55 -131t-131 -55t-131 55t-55 131z" />
<glyph unicode="&#xf7;" horiz-adv-x="1064" d="M78 528v297h911v-297h-911zM369 303q0 68 48 116t115 48q69 0 117.5 -48t48.5 -116q0 -69 -48.5 -117.5t-117.5 -48.5q-68 0 -115.5 48.5t-47.5 117.5zM369 1051q0 67 47.5 115t115.5 48q69 0 117.5 -47.5t48.5 -115.5t-48.5 -116t-117.5 -48q-67 0 -115 48t-48 116z" />
<glyph unicode="&#xf8;" horiz-adv-x="2031" d="M78 0l176 143q-47 74 -47 166v733q0 129 90.5 220.5t218.5 91.5h1002q81 0 153 -43l51 43h234l-176 -146q47 -71 47 -166v-733q0 -127 -90.5 -218t-218.5 -91h-1002q-85 0 -156 41l-49 -41h-233zM559 395l803 662h-696q-44 0 -75.5 -26.5t-31.5 -69.5v-566zM670 295h698 q44 0 75.5 27.5t31.5 70.5v565z" />
<glyph unicode="&#xf9;" d="M78 309v1045h352v-961q0 -43 31.5 -69.5t75.5 -26.5h710v1057h355v-1354h-1215q-127 0 -218 91t-91 218zM313 1878h359l549 -432h-361z" />
<glyph unicode="&#xfa;" d="M78 309v1045h352v-961q0 -43 31.5 -69.5t75.5 -26.5h710v1057h355v-1354h-1215q-127 0 -218 91t-91 218zM479 1446l547 432h360l-548 -432h-359z" />
<glyph unicode="&#xfb;" d="M78 309v1045h352v-961q0 -43 31.5 -69.5t75.5 -26.5h710v1057h355v-1354h-1215q-127 0 -218 91t-91 218zM303 1450l457 457h158l456 -457h-313l-221 221l-222 -221h-315z" />
<glyph unicode="&#xfc;" d="M78 309v1045h352v-961q0 -43 31.5 -69.5t75.5 -26.5h710v1057h355v-1354h-1215q-127 0 -218 91t-91 218zM430 1638q0 77 55 132t131 55t131.5 -55.5t55.5 -131.5t-55 -131t-132 -55q-76 0 -131 55t-55 131zM874 1638q0 76 55 131.5t132 55.5q76 0 131 -55t55 -132 q0 -76 -54.5 -131t-131.5 -55t-132 55t-55 131z" />
<glyph unicode="&#xfd;" horiz-adv-x="1529" d="M78 0v297h917q43 0 74 26.5t31 69.5v119h-713q-127 0 -218 91t-91 218v533h352v-449q0 -43 31.5 -70.5t75.5 -27.5h563v547h354v-1045q0 -127 -91.5 -218t-219.5 -91h-1065zM383 1446l547 432h360l-549 -432h-358z" />
<glyph unicode="&#xfe;" horiz-adv-x="1593" d="M78 0v1354h352v-187h778q127 0 218.5 -91.5t91.5 -219.5v-360q0 -128 -91 -219t-219 -91h-778v-186h-352zM430 483h629q44 0 75 27t31 70v192q0 44 -31 71t-75 27h-629v-387z" />
<glyph unicode="&#xff;" horiz-adv-x="1529" d="M78 0v297h917q43 0 74 26.5t31 69.5v119h-713q-127 0 -218 91t-91 218v533h352v-449q0 -43 31.5 -70.5t75.5 -27.5h563v547h354v-1045q0 -127 -91.5 -218t-219.5 -91h-1065zM356 1638q0 76 55 131.5t132 55.5q76 0 131 -55t55 -132q0 -76 -54.5 -131t-131.5 -55t-132 55 t-55 131zM801 1638q0 77 55 132t131 55q77 0 132 -55.5t55 -131.5t-55 -131t-132 -55t-131.5 55t-54.5 131z" />
<glyph unicode="&#x152;" horiz-adv-x="2797" d="M78 309v733q0 129 90.5 220.5t218.5 91.5h1002q64 0 135 -31q67 31 133 31h1065v-297h-918q-43 0 -73.5 -26.5t-30.5 -69.5v-136h1022v-297h-1022v-135q0 -43 30.5 -70.5t73.5 -27.5h918v-295h-1065q-73 0 -133 31q-64 -31 -135 -31h-1002q-127 0 -218 91t-91 218z M430 393q0 -43 31.5 -70.5t75.5 -27.5h704q43 0 74 27.5t31 70.5v568q0 43 -31 69.5t-74 26.5h-704q-44 0 -75.5 -26.5t-31.5 -69.5v-568z" />
<glyph unicode="&#x153;" horiz-adv-x="2881" d="M78 309v733q0 129 90.5 220.5t218.5 91.5h1002q64 0 135 -31q67 31 133 31h837q128 0 219 -91.5t91 -220.5v-514h-1104v-135q0 -43 30.5 -70.5t73.5 -27.5h1002v-295h-1149q-73 0 -133 31q-64 -31 -135 -31h-1002q-127 0 -218 91t-91 218zM430 393q0 -43 31.5 -70.5 t75.5 -27.5h704q43 0 74 27.5t31 70.5v568q0 43 -31 69.5t-74 26.5h-704q-44 0 -75.5 -26.5t-31.5 -69.5v-568zM1700 825h751v136q0 43 -31 69.5t-75 26.5h-541q-43 0 -73.5 -26.5t-30.5 -69.5v-136z" />
<glyph unicode="&#x178;" horiz-adv-x="1529" d="M78 0v297h917q43 0 74 26.5t31 69.5v119h-713q-127 0 -218 91t-91 218v533h352v-449q0 -43 31.5 -70.5t75.5 -27.5h563v547h354v-1045q0 -127 -91.5 -218t-219.5 -91h-1065zM356 1638q0 76 55 131.5t132 55.5q76 0 131 -55t55 -132q0 -76 -54.5 -131t-131.5 -55t-132 55 t-55 131zM801 1638q0 77 55 132t131 55q77 0 132 -55.5t55 -131.5t-55 -131t-132 -55t-131.5 55t-54.5 131z" />
<glyph unicode="&#x2c6;" horiz-adv-x="1224" d="M78 1450l457 457h157l457 -457h-313l-222 221l-221 -221h-315z" />
<glyph unicode="&#x2dc;" horiz-adv-x="1466" d="M78 1593q41 135 155.5 219t255.5 84q84 0 156.5 -34t155.5 -97q35 -28 57 -43.5t60 -33t69 -17.5q68 0 125 40t80 104l199 -74q-46 -126 -157.5 -204.5t-246.5 -78.5q-83 0 -156 36t-159 101q-34 27 -56.5 43t-58.5 32t-68 16q-72 0 -129 -43.5t-79 -112.5z" />
<glyph unicode="&#x2000;" horiz-adv-x="953" />
<glyph unicode="&#x2001;" horiz-adv-x="1907" />
<glyph unicode="&#x2002;" horiz-adv-x="953" />
<glyph unicode="&#x2003;" horiz-adv-x="1907" />
<glyph unicode="&#x2004;" horiz-adv-x="635" />
<glyph unicode="&#x2005;" horiz-adv-x="476" />
<glyph unicode="&#x2006;" horiz-adv-x="317" />
<glyph unicode="&#x2007;" horiz-adv-x="317" />
<glyph unicode="&#x2008;" horiz-adv-x="238" />
<glyph unicode="&#x2009;" horiz-adv-x="381" />
<glyph unicode="&#x200a;" horiz-adv-x="105" />
<glyph unicode="&#x2010;" horiz-adv-x="731" d="M78 528v297h577v-297h-577z" />
<glyph unicode="&#x2011;" horiz-adv-x="731" d="M78 528v297h577v-297h-577z" />
<glyph unicode="&#x2012;" horiz-adv-x="731" d="M78 528v297h577v-297h-577z" />
<glyph unicode="&#x2013;" horiz-adv-x="1353" d="M78 528v297h1200v-297h-1200z" />
<glyph unicode="&#x2014;" horiz-adv-x="2050" d="M78 528v297h1896v-297h-1896z" />
<glyph unicode="&#x2018;" horiz-adv-x="686" d="M78 844l162 510h370l-161 -510h-371z" />
<glyph unicode="&#x2019;" horiz-adv-x="686" d="M78 844l162 510h370l-161 -510h-371z" />
<glyph unicode="&#x201a;" horiz-adv-x="686" d="M78 -283l162 510h370l-161 -510h-371z" />
<glyph unicode="&#x201c;" horiz-adv-x="1075" d="M78 844l162 510h342l-160 -510h-344zM496 844l159 510h344l-159 -510h-344z" />
<glyph unicode="&#x201d;" horiz-adv-x="1075" d="M78 844l162 510h342l-160 -510h-344zM496 844l159 510h344l-159 -510h-344z" />
<glyph unicode="&#x201e;" horiz-adv-x="1075" d="M78 -283l162 510h342l-160 -510h-344zM496 -283l159 510h344l-159 -510h-344z" />
<glyph unicode="&#x2022;" horiz-adv-x="1071" d="M78 676q0 190 135 324.5t324 134.5t323.5 -134.5t134.5 -324.5q0 -189 -134.5 -324t-323.5 -135t-324 135t-135 324z" />
<glyph unicode="&#x2026;" horiz-adv-x="1406" d="M78 0v344h352v-344h-352zM528 0v344h353v-344h-353zM979 0v344h352v-344h-352z" />
<glyph unicode="&#x202f;" horiz-adv-x="381" />
<glyph unicode="&#x2039;" horiz-adv-x="698" d="M78 412l219 413h326l-220 -413l220 -412h-326z" />
<glyph unicode="&#x203a;" horiz-adv-x="698" d="M78 0l219 412l-219 413h325l220 -413l-220 -412h-325z" />
<glyph unicode="&#x205f;" horiz-adv-x="476" />
<glyph unicode="&#x20ac;" horiz-adv-x="1826" d="M78 424l106 223h144v58h-246l106 223h140v114q0 129 90.5 220.5t218.5 91.5h1114l-141 -297h-824q-44 0 -75 -26.5t-31 -69.5v-33h864l-106 -223h-758v-58h731l-106 -223h-625v-31q0 -43 31 -70.5t75 -27.5h709l141 -295h-999q-127 0 -218 91t-91 218v115h-250z" />
<glyph unicode="&#x2122;" horiz-adv-x="1536" d="M78 1204v150h555v-150h-195v-354h-166v354h-194zM686 850v504h647q53 0 90 -37.5t37 -91.5v-375h-166v354h-131v-354h-168v354h-143v-354h-166z" />
<glyph unicode="&#xe000;" horiz-adv-x="1351" d="M0 0v1352h1352v-1352h-1352z" />
</font>
</defs>
</svg>
